<?xml version="1.0" encoding="UTF-8" standalone="no"?>
<!-- Created with Inkscape (http://www.inkscape.org/) -->

<svg
   width="512"
   height="330"
   viewBox="0 0 135.46667 87.312494"
   version="1.1"
   id="svg5"
   xml:space="preserve"
   inkscape:version="1.2.2 (732a01da63, 2022-12-09)"
   sodipodi:docname="accion inmobiliaria.svg"
   inkscape:export-filename="accion inmobiliaria.png"
   inkscape:export-xdpi="96"
   inkscape:export-ydpi="96"
   xmlns:inkscape="http://www.inkscape.org/namespaces/inkscape"
   xmlns:sodipodi="http://sodipodi.sourceforge.net/DTD/sodipodi-0.dtd"
   xmlns="http://www.w3.org/2000/svg"
   xmlns:svg="http://www.w3.org/2000/svg"><sodipodi:namedview
     id="namedview7"
     pagecolor="#ffffff"
     bordercolor="#000000"
     borderopacity="0.25"
     inkscape:showpageshadow="2"
     inkscape:pageopacity="0.0"
     inkscape:pagecheckerboard="0"
     inkscape:deskcolor="#d1d1d1"
     inkscape:document-units="px"
     showgrid="false"
     inkscape:zoom="2.3786088"
     inkscape:cx="174.47173"
     inkscape:cy="127.8058"
     inkscape:window-width="2560"
     inkscape:window-height="1566"
     inkscape:window-x="-11"
     inkscape:window-y="-11"
     inkscape:window-maximized="1"
     inkscape:current-layer="layer1" /><defs
     id="defs2" /><g
     inkscape:label="Layer 1"
     inkscape:groupmode="layer"
     id="layer1"><g
       id="g6466"
       transform="matrix(1.0700786,0,0,1.0700786,0.22988499,-3.424811)"
       style="display:inline"><path
         style="display:inline;fill:#f58220;fill-opacity:1;stroke-width:1.013;stroke-linejoin:bevel;paint-order:fill markers stroke"
         d="M 9.121228,46.940954 19.799739,46.496014 49.165644,12.569497 42.936511,4.8943175 Z"
         id="path1687" /><path
         style="fill:#fbc392;fill-opacity:0.760784;stroke-width:1.013;stroke-linejoin:bevel;paint-order:fill markers stroke"
         d="m 49.276878,12.791966 44.105866,53.533577 v 0 L 121.77395,66.629459 55.561626,4.9499347 42.978226,4.922126 Z"
         id="path1689" /><g
         transform="matrix(0.02883465,0,0,-0.02920155,-74.356065,12.745345)"
         fill="#000000"
         stroke="none"
         id="g3879"><path
           d="m 5751.3962,-1208.971 c -92.0742,-20.2114 -184.8971,-95.0686 -223.8228,-181.1542 -23.9543,-53.1487 -32.1886,-167.68 -17.2172,-225.3201 29.9429,-108.5428 113.7829,-199.1199 214.0914,-229.8113 47.9086,-14.223 151.2115,-14.223 202.1143,0.7485 125.0115,35.9314 215.5886,154.9542 225.32,294.9371 6.7372,95.0686 -23.2057,175.1658 -92.0743,247.0286 -49.4057,51.6513 -98.8113,79.3486 -165.4342,93.5714 -61.3829,13.4743 -81.5944,13.4743 -142.9772,0 z m 175.1657,-147.4686 c 65.1258,-41.92 92.8229,-93.5714 92.8229,-173.6685 0,-118.2743 -79.3486,-201.3657 -190.8858,-201.3657 -53.8971,0 -89.0799,13.4742 -130.9999,51.6514 -41.1714,37.4285 -61.3829,78.5999 -65.8743,134.7429 -6.7371,85.3371 37.4286,163.1885 113.0343,198.3714 46.4114,21.7085 139.9829,16.4686 181.9028,-9.7315 z"
           id="path3867"
           style="stroke-width:0.748571" /><path
           d="m 3615.7221,-1215.7082 c -101.0571,-26.9485 -188.64,-116.7771 -220.08,-224.5714 -17.2171,-59.1371 -11.9772,-156.4514 11.2286,-216.3371 32.1885,-84.5885 118.2742,-165.4343 201.3657,-189.3885 63.6285,-18.7143 178.9085,-11.9772 235.0514,14.2228 48.6571,21.7085 111.5371,81.5942 138.4857,131 l 17.2171,31.44 h -71.8628 c -71.8629,0 -72.6115,0 -103.3029,-26.2 -54.6457,-46.4114 -138.4856,-55.3943 -205.8571,-21.7086 -71.1143,35.1829 -109.2915,100.3086 -108.5429,186.3943 0,61.3829 13.4743,95.8172 52.4001,139.2343 71.8628,80.0971 194.6285,87.5828 269.4856,17.2172 26.9486,-25.4515 26.9486,-25.4515 97.3144,-25.4515 81.5942,0 80.097,-2.9943 34.4342,65.1257 -54.6457,83.0914 -147.4686,130.2514 -254.5143,128.7542 -32.1886,0 -74.1085,-4.4913 -92.8228,-9.7314 z"
           id="path3869"
           style="stroke-width:0.748571" /><path
           d="m 4479.5734,-1212.7139 c -83.8399,-19.4628 -166.1828,-89.8285 -210.3485,-178.9085 -26.9486,-54.6458 -27.6971,-58.3886 -27.6971,-138.4857 0.7485,-68.1201 3.7428,-90.5772 17.2171,-124.2629 23.2057,-58.3885 62.1314,-107.0457 113.7828,-145.9714 62.1314,-44.9142 111.5372,-58.3886 206.6058,-54.6457 66.6228,2.2457 80.8456,5.24 124.2628,26.9485 53.1486,26.2001 101.0571,72.6115 131.7486,127.2572 l 17.2171,31.44 h -71.8629 c -71.8628,0 -72.6114,0 -103.3028,-26.2 -16.4686,-14.2228 -42.6686,-29.9428 -56.8914,-33.6857 -134.7429,-37.4286 -256.76,54.6457 -258.2572,194.6285 -1.4971,140.7315 128.0058,241.04 256.76,198.3714 20.9601,-6.7371 50.9029,-23.9542 65.8743,-38.177 26.2,-25.4515 27.6972,-25.4515 96.5657,-25.4515 38.9257,0 70.3658,2.9943 70.3658,6.7371 0,4.4914 -14.2229,28.4457 -32.1886,54.6457 -62.1315,90.5772 -146.72,133.9943 -259.0057,132.4971 -31.44,-0.7485 -67.3715,-2.9942 -80.8458,-6.7371 z"
           id="path3871"
           style="stroke-width:0.748571" /><path
           d="m 2865.6536,-1217.9539 c -2.2457,-3.7428 -56.8915,-142.2285 -121.2687,-309.1599 -65.1256,-166.9314 -119.7714,-307.6629 -121.2685,-312.9029 -2.9942,-7.4857 9.7315,-8.9828 58.3886,-7.4857 l 62.1314,2.2458 23.9543,63.6284 23.9542,63.6286 h 121.2686 122.0171 l 23.9544,-63.6286 23.9542,-63.6284 65.1258,-2.2458 64.3771,-2.2457 -6.7372,17.2171 c -3.7428,9.7314 -53.8971,139.9829 -111.5371,290.4458 -57.64,150.4628 -109.2914,285.9542 -116.0286,301.6742 l -11.9771,27.6971 h -48.6571 c -26.9486,0 -50.1544,-2.2457 -51.6514,-5.24 z m 87.5828,-272.48 c 18.7143,-51.6513 34.4342,-98.0628 34.4342,-103.3028 0,-5.24 -23.2056,-8.2342 -74.8571,-8.2342 -41.1714,0 -74.8571,2.9942 -74.8571,6.737 0,2.9943 13.4742,41.1714 29.1942,83.8401 44.9143,118.2742 45.6629,121.2686 48.6572,118.2742 1.4972,-1.4971 17.9657,-45.6628 37.4286,-97.3143 z"
           id="path3873"
           style="stroke-width:0.748571" /><path
           d="m 5113.6134,-1530.8567 v -318.1428 h 63.6285 63.6286 v 318.1428 318.1428 h -63.6286 -63.6285 z"
           id="path3875"
           style="stroke-width:0.748571" /><path
           d="m 6412.3848,-1476.211 c -2.9943,-145.2228 -3.7429,-287.4514 -2.2458,-316.6457 l 2.2458,-52.3999 62.88,-2.2458 62.88,-2.2457 -5.24,206.6057 c -2.9944,118.2742 -2.2458,205.8571 1.4971,205.8571 5.9886,0 184.8972,-277.72 247.7772,-383.2685 l 17.217,-28.4457 h 55.3944 55.3942 v 318.1428 318.1428 h -56.1428 -56.1428 v -202.1143 c 0,-110.7885 -2.2458,-202.1142 -5.2401,-202.1142 -3.7428,0.7485 -64.3771,91.3257 -136.24,202.1142 l -129.5029,202.1143 h -54.6456 -54.6457 z"
           id="path3877"
           style="stroke-width:0.748571" /></g><text
         xml:space="preserve"
         style="font-style:normal;font-variant:normal;font-weight:normal;font-stretch:normal;font-size:16.9333px;font-family:'MS UI Gothic';-inkscape-font-specification:'MS UI Gothic, Normal';font-variant-ligatures:normal;font-variant-caps:normal;font-variant-numeric:normal;font-variant-east-asian:normal;text-align:center;letter-spacing:1.72773px;word-spacing:0.542396px;text-anchor:middle;fill:#f58220;fill-opacity:1;stroke-width:1.013;stroke-linejoin:bevel;paint-order:fill markers stroke"
         x="64.182297"
         y="82.86969"
         id="text6403"><tspan
           sodipodi:role="line"
           id="tspan6401"
           style="font-style:normal;font-variant:normal;font-weight:normal;font-stretch:normal;font-size:16.9333px;font-family:'Century Gothic';-inkscape-font-specification:'Century Gothic, Normal';font-variant-ligatures:normal;font-variant-caps:normal;font-variant-numeric:normal;font-variant-east-asian:normal;stroke-width:1.013"
           x="65.046158"
           y="82.86969"
           dx="2.5"
           dy="0">Inmobiliaria</tspan></text></g></g></svg>
